<svg width="1866" height="369" viewBox="0 0 1866 369" fill="none" xmlns="http://www.w3.org/2000/svg">
<path fill-rule="evenodd" clip-rule="evenodd" d="M185.892 73.7289V276.692H182.211V73.7107C181.039 67.9381 179.312 62.2775 177.047 56.8092C172.422 45.6441 165.644 35.4992 157.098 26.9538C148.553 18.4084 138.408 11.6298 127.243 7.00506C116.078 2.38032 104.111 0 92.026 0C79.9409 0 67.9743 2.38032 56.8092 7.00506C45.644 11.6298 35.4992 18.4084 26.9538 26.9538C18.4084 35.4992 11.6298 45.6441 7.00506 56.8092C2.38039 67.9741 7.71383e-05 79.9406 0 92.0254V92.026V368.103H90.1875V92.0254H93.8685V277.054C93.9907 288.807 96.3182 300.431 100.728 311.295C105.261 322.46 111.904 332.605 120.278 341.151C128.653 349.696 138.595 356.475 149.536 361.099C160.478 365.724 172.206 368.104 184.049 368.104C195.892 368.104 207.62 365.724 218.561 361.099C229.503 356.475 239.445 349.696 247.82 341.151C256.194 332.605 262.837 322.46 267.369 311.295C271.825 300.319 274.155 288.568 274.232 276.691H274.234V92.0254H277.915V368H368V92.026H368.107C368.107 79.9409 365.726 67.9743 361.102 56.8092C356.477 45.6441 349.698 35.4992 341.153 26.9538C332.607 18.4084 322.463 11.6298 311.297 7.00506C300.132 2.38032 288.166 0 276.081 0C263.996 0 252.029 2.38032 240.864 7.00506C229.699 11.6298 219.554 18.4084 211.008 26.9538C202.463 35.4992 195.684 45.6441 191.06 56.8092C188.792 62.2832 187.064 67.95 185.892 73.7289Z" fill="#F02B00"/>
<path fill-rule="evenodd" clip-rule="evenodd" d="M567.489 368.104C669.139 368.104 751.541 285.701 751.541 184.052C751.541 82.4029 669.139 0 567.489 0C465.84 0 383.438 82.4029 383.438 184.052C383.438 285.701 465.84 368.104 567.489 368.104ZM569.329 91.7197H565.648V276.385H569.329V91.7197Z" fill="#F02B00"/>
<path fill-rule="evenodd" clip-rule="evenodd" d="M1865.98 184.986C1865.98 184.675 1865.98 184.363 1865.98 184.052C1865.98 183.74 1865.98 183.429 1865.98 183.118V0H1681.93H1679.81V0.0119341C1579.14 1.14703 1497.88 83.1098 1497.88 184.052C1497.88 284.994 1579.14 366.957 1679.81 368.092V368.104H1681.93H1865.98V184.986ZM1589.9 186.2V182.212H1681.92V186.2H1589.9ZM1776.1 92.0258H1772.11V368.104H1776.1V92.0258Z" fill="#F02B00"/>
<path fill-rule="evenodd" clip-rule="evenodd" d="M929.105 6.44261e-05H1021V92H1021.01V276H1113C1113 288.082 1110.62 300.045 1106 311.207C1101.37 322.369 1094.6 332.511 1086.05 341.054C1077.51 349.597 1067.37 356.373 1056.2 360.997C1045.04 365.62 1033.08 368 1021 368C1008.91 368 996.95 365.62 985.788 360.997C974.626 356.374 964.483 349.597 955.94 341.054C947.397 332.511 940.62 322.369 935.996 311.207C933.733 305.745 932.008 300.091 930.836 294.325V88.3203H927.156V294.364C926.202 299.05 924.88 303.671 923.195 308.183C917.593 323.186 908.171 336.467 895.861 346.712C883.551 356.957 868.78 363.812 853.008 366.597C837.236 369.383 821.011 368.004 805.936 362.596C790.861 357.188 777.459 347.938 767.055 335.762C756.651 323.586 749.606 308.905 746.617 293.171C745.537 287.488 745 281.739 745 275.999H745C745 263.917 747.38 251.954 752.003 240.792C756.627 229.63 763.404 219.488 771.947 210.945C780.491 202.402 790.633 195.626 801.795 191.002C812.954 186.38 824.914 184.001 836.992 183.999V91.9999V88.3203H837.066C837.499 77.4947 839.842 66.8205 843.996 56.7931C848.619 45.6311 855.396 35.4891 863.939 26.9462C872.483 18.4032 882.625 11.6265 893.788 7.00308C904.383 2.61443 915.701 0.247466 927.156 0.0183911V6.44261e-05H928.887L928.996 0L929.105 6.44261e-05ZM1424.4 182.16H1221.39V185.84H1424.4C1466.39 194.364 1498 231.491 1498 276C1498 326.81 1456.81 368 1406 368H1406H1130V359H1130V183.079V4H1130V0H1406H1406C1456.81 0 1498 41.1898 1498 92C1498 136.51 1466.39 173.637 1424.4 182.16ZM1221 94H1406V90H1221V94ZM1407 272V276H1222V272H1407Z" fill="#F02B00"/>
</svg>
