<svg width="30" height="42" viewBox="0 0 30 42" fill="none" xmlns="http://www.w3.org/2000/svg">
<path d="M15.1262 42H0.157868V0.622043H15.0402C22.1516 0.622043 26.9689 4.72256 26.9689 10.8303C26.9689 15.4183 23.8147 19.3468 19.3988 20.1497V20.3504C25.1338 21.0386 29.1196 24.9097 29.1196 30.6447C29.1196 37.6988 23.8721 42 15.1262 42ZM4.05766 4.09171V19.0027H13.0616C19.3414 19.0027 23.0118 16.1352 23.0118 11.2605C23.0118 6.75848 19.7142 4.09171 14.2086 4.09171H4.05766ZM4.05766 38.5303H14.5814C21.3487 38.5303 25.1051 35.5768 25.1051 30.444C25.1051 25.2825 21.2053 22.3863 14.0652 22.3863H4.05766V38.5303Z" fill="black"/>
</svg>
