<svg width="367" height="367" viewBox="0 0 367 367" fill="none" xmlns="http://www.w3.org/2000/svg">
<path fill-rule="evenodd" clip-rule="evenodd" d="M181.625 73.4628C180.456 67.7128 178.736 62.0743 176.48 56.6272C171.87 45.4979 165.113 35.3855 156.595 26.8675C148.077 18.3494 137.965 11.5926 126.835 6.98262C115.706 2.3727 103.778 0 91.7312 0C79.6849 0 67.7566 2.3727 56.6272 6.98263C45.4979 11.5926 35.3855 18.3494 26.8675 26.8675C18.3494 35.3855 11.5925 45.4979 6.98262 56.6272C2.37286 67.7562 0.000167847 79.6841 0 91.73V91.7313V366.924H91.7313V366.676H89.8984V91.4818H93.5677V276.52C93.7319 288.115 96.0493 299.578 100.401 310.299C104.919 321.428 111.541 331.54 119.888 340.058C128.236 348.576 138.146 355.333 149.053 359.943C159.96 364.553 171.65 366.926 183.455 366.926C195.26 366.926 206.95 364.553 217.857 359.943C228.764 355.333 238.674 348.576 247.021 340.058C255.369 331.54 261.991 321.428 266.509 310.299C270.95 299.357 273.272 287.643 273.35 275.804H273.352V91.4818H277.021V366.676H277V367H367V89H366.883C366.552 77.885 364.202 66.9147 359.941 56.6272C355.331 45.4979 348.574 35.3855 340.056 26.8675C331.538 18.3494 321.426 11.5926 310.296 6.98262C299.167 2.3727 287.239 0 275.192 0C263.146 0 251.217 2.3727 240.088 6.98263C228.959 11.5926 218.846 18.3494 210.328 26.8675C201.81 35.3855 195.053 45.4979 190.444 56.6272C188.185 62.0808 186.463 67.7263 185.294 73.4834V275.557H181.625V73.4628Z" fill="#F02B00"/>
</svg>
